<svg width="512" height="512" viewBox="0 0 512 512" fill="none" xmlns="http://www.w3.org/2000/svg">
<rect width="512" height="512" rx="10" fill="#0C0E1E"/>
<path d="M82.5391 261.109L144.648 283.57V310.035L60.2734 274.293V255.543L82.5391 261.109ZM144.648 242.75L82.4414 265.602L60.2734 270.875V252.125L144.648 216.383V242.75ZM203.73 324H175.41V208.961C175.41 200.953 176.973 194.215 180.098 188.746C183.288 183.212 187.747 179.046 193.477 176.246C199.271 173.382 206.139 171.949 214.082 171.949C216.686 171.949 219.193 172.145 221.602 172.535C224.01 172.861 226.354 173.284 228.633 173.805L228.34 194.996C227.103 194.671 225.801 194.443 224.434 194.312C223.066 194.182 221.471 194.117 219.648 194.117C216.263 194.117 213.366 194.703 210.957 195.875C208.613 196.982 206.823 198.642 205.586 200.855C204.349 203.069 203.73 205.771 203.73 208.961V324ZM224.824 218.336V238.258H159.688V218.336H224.824ZM350.117 181.812L297.969 336.207H277.07L329.219 181.812H350.117ZM426.875 265.016L364.277 242.652V216.383L449.336 252.125V270.973L426.875 265.016ZM364.277 283.766L426.973 260.914L449.336 255.543V274.293L364.277 310.035V283.766Z" fill="white"/>
</svg>
